<?xml version="1.0" standalone="no"?>
<!DOCTYPE svg PUBLIC "-//W3C//DTD SVG 20010904//EN"
 "http://www.w3.org/TR/2001/REC-SVG-20010904/DTD/svg10.dtd">
<svg version="1.0" xmlns="http://www.w3.org/2000/svg"
 width="1200.000000pt" height="1200.000000pt" viewBox="0 0 1200.000000 1200.000000"
 preserveAspectRatio="xMidYMid meet">
<metadata>
Created by potrace 1.14, written by Peter Selinger 2001-2017
</metadata>
<g transform="translate(0.000000,1200.000000) scale(0.100000,-0.100000)"
fill="#000000" stroke="none">
<path d="M5785 10780 c-88 -4 -176 -10 -195 -13 -19 -3 -98 -13 -175 -22 -77
-9 -154 -20 -170 -25 -17 -6 -53 -13 -80 -16 -73 -9 -365 -82 -480 -119 -27
-9 -63 -20 -80 -25 -111 -31 -414 -154 -581 -235 -698 -341 -1300 -840 -1749
-1451 -165 -226 -225 -316 -308 -464 -14 -25 -39 -70 -56 -100 -158 -278 -362
-783 -430 -1065 -5 -22 -18 -74 -28 -115 -47 -179 -77 -347 -112 -625 -25
-195 -35 -548 -23 -782 13 -231 17 -272 52 -513 28 -186 48 -292 82 -425 l13
-50 45 -3 c25 -1 50 1 56 5 16 11 83 147 155 315 58 134 104 265 143 403 9 33
23 83 31 110 8 28 26 100 40 160 14 61 35 129 46 153 22 45 89 103 149 129
119 51 287 67 399 39 31 -8 92 -21 136 -31 44 -9 100 -23 125 -31 25 -8 66
-17 91 -20 l46 -6 12 153 c13 166 15 186 35 329 19 135 60 306 113 475 210
668 655 1270 1219 1652 280 189 485 290 821 402 73 24 289 77 353 86 25 3 79
12 120 20 41 8 157 19 258 25 543 34 1114 -86 1589 -336 201 -106 435 -265
590 -401 322 -283 554 -580 748 -958 144 -279 210 -467 296 -844 21 -94 59
-435 59 -539 0 -43 4 -64 13 -68 8 -3 49 5 93 17 43 12 97 25 119 29 22 4 58
12 80 18 104 28 168 37 265 37 189 0 347 -71 399 -178 11 -24 46 -141 76 -262
51 -202 97 -356 130 -430 7 -16 34 -82 61 -145 58 -141 133 -292 148 -302 16
-11 94 -10 101 2 16 25 81 334 95 450 5 36 18 139 31 230 19 144 22 212 23
535 0 297 -3 398 -17 510 -45 363 -107 655 -205 980 -126 415 -360 892 -630
1284 -340 497 -790 940 -1287 1272 -395 263 -889 493 -1295 604 -36 9 -76 21
-90 26 -38 12 -229 56 -370 84 -71 14 -201 31 -410 54 -128 14 -489 20 -685
11z m1094 -547 c6 -16 19 -40 28 -54 17 -26 16 -27 -15 -54 -54 -45 -64 -76
-73 -224 -9 -149 -23 -250 -41 -296 -17 -45 -78 -104 -118 -115 -34 -10 -144
-3 -355 21 -49 6 -170 13 -267 16 l-177 6 -18 -31 c-21 -38 -36 -36 -43 4 -5
27 -9 29 -60 34 -60 6 -85 17 -114 49 -25 28 -44 26 -72 -4 -16 -17 -34 -25
-56 -25 -18 0 -67 -5 -109 -11 -69 -11 -80 -10 -115 7 -54 26 -79 69 -124 214
-22 69 -56 164 -76 210 -20 47 -38 94 -41 106 -7 31 22 94 44 94 15 0 29 -33
73 -172 89 -280 93 -290 120 -309 23 -17 39 -18 172 -11 132 7 150 10 171 30
31 29 55 28 67 -2 11 -31 69 -48 143 -44 l52 3 70 87 c74 93 110 124 187 164
61 31 177 34 221 5 96 -63 83 -189 -26 -256 -9 -5 -17 -16 -19 -24 -2 -12 18
-15 107 -16 61 -1 138 -8 172 -15 130 -29 147 3 157 290 9 243 14 272 57 316
40 41 63 43 78 7z m-2423 -148 c44 -44 44 -45 29 -74 -8 -17 -15 -44 -15 -61
0 -17 32 -110 71 -207 39 -97 80 -213 91 -258 19 -77 19 -85 5 -136 -20 -66
-54 -105 -106 -119 -21 -6 -83 -30 -136 -55 -79 -37 -107 -45 -155 -45 -53 0
-61 3 -84 30 -22 27 -31 53 -39 120 -4 29 -37 21 -81 -20 -51 -47 -97 -114
-146 -210 -54 -104 -88 -146 -163 -195 -60 -41 -74 -46 -106 -41 -79 13 -76
15 -81 -37 -5 -41 -13 -55 -63 -105 -31 -32 -57 -63 -57 -69 0 -6 16 -35 35
-65 46 -68 76 -149 82 -218 10 -108 -66 -248 -172 -316 -45 -28 -63 -34 -111
-34 -40 0 -67 6 -90 21 -57 35 -134 164 -134 223 l1 31 16 -30 c59 -113 153
-130 266 -46 56 41 129 128 146 174 15 39 14 93 -3 126 -21 40 -80 88 -124
102 -21 6 -48 18 -59 28 -23 17 -65 128 -52 137 4 2 25 2 47 -2 34 -5 44 -2
78 27 104 87 145 134 151 171 5 36 24 50 38 28 19 -31 97 10 255 136 133 106
151 144 66 144 -57 0 -122 -25 -161 -61 -48 -45 -55 -39 -55 47 0 125 41 158
212 169 109 8 225 36 287 71 24 13 49 24 56 24 7 0 20 -21 28 -47 17 -52 12
-68 -30 -84 -48 -18 -38 -62 18 -74 21 -5 50 3 111 31 46 20 111 46 146 58 90
31 106 47 98 101 -4 24 -32 103 -62 177 -123 297 -137 334 -142 374 -4 42 19
104 39 104 6 0 31 -20 55 -45z m2914 -90 c0 -9 -7 -29 -15 -45 -8 -16 -26 -71
-39 -122 -42 -161 -85 -296 -115 -357 -31 -64 -78 -131 -92 -131 -12 0 -12 43
0 56 11 11 69 213 106 374 15 63 35 133 46 155 28 59 109 110 109 70z m418
-77 c28 28 46 28 66 -3 20 -31 20 -44 -1 -67 -23 -26 -46 -22 -72 13 -22 29
-24 30 -46 15 -34 -22 -52 -20 -71 9 -19 29 -11 63 19 75 18 7 28 2 53 -28
l31 -35 21 21z m-5 -188 c-1 -8 -9 -51 -18 -95 -44 -233 -44 -240 27 -269 24
-10 66 -29 94 -43 35 -16 64 -23 94 -21 38 3 43 1 45 -20 1 -12 6 -27 11 -32
25 -25 179 -110 190 -106 20 8 17 40 -7 70 -30 38 -21 57 43 90 54 27 60 28
102 16 80 -22 142 -106 129 -174 -7 -37 -50 -76 -84 -76 -15 0 -31 -5 -34 -10
-13 -21 8 -47 86 -103 78 -57 81 -59 132 -54 29 3 71 11 94 18 64 20 97 5 101
-46 2 -22 -1 -66 -8 -97 -14 -74 -2 -103 79 -187 33 -35 61 -68 61 -72 0 -15
153 -130 169 -127 9 2 17 11 19 21 5 27 -44 125 -79 158 -36 34 -33 40 28 58
36 10 48 9 72 -3 42 -22 68 -60 87 -125 36 -124 68 -205 102 -253 33 -49 34
-52 16 -65 -11 -8 -30 -17 -43 -20 -25 -6 -30 -2 -93 79 -41 53 -130 107 -242
146 -55 19 -115 45 -133 58 -51 38 -104 96 -119 132 -15 33 -16 34 -64 27 -45
-6 -50 -5 -66 20 -10 16 -22 64 -28 114 l-11 86 -53 -3 c-47 -2 -57 1 -107 38
-61 45 -70 59 -80 115 -15 91 -37 115 -89 95 -34 -12 -123 -13 -130 -1 -3 5
-31 23 -61 40 -40 23 -56 38 -61 58 -3 16 -7 34 -10 41 -4 15 -38 16 -66 1
-21 -12 -68 1 -155 44 -51 24 -68 63 -58 132 6 40 5 45 -11 45 -11 0 -32 -9
-49 -20 -44 -29 -86 -26 -119 9 -38 39 -31 64 36 134 42 44 62 57 93 62 66 10
83 21 94 61 5 20 18 45 27 56 20 21 50 20 47 -2z m-54 -645 c29 -49 46 -53 82
-19 l30 29 29 -35 c16 -19 30 -40 30 -46 0 -15 -66 -77 -79 -73 -5 2 -20 19
-33 38 -31 46 -43 48 -74 14 l-26 -28 -24 30 c-39 48 -40 70 -7 99 37 34 47
32 72 -9z m-3950 -436 c14 -42 -4 -64 -59 -73 -44 -7 -47 -13 -24 -58 20 -38
12 -46 -50 -50 -48 -3 -49 -2 -61 33 -16 45 -10 54 39 62 55 9 62 19 46 67
-15 46 -13 50 32 60 43 9 63 -2 77 -41z m-500 -193 c24 -38 20 -61 -12 -69
-12 -3 -32 -8 -44 -12 -18 -6 -25 0 -43 35 -24 46 -22 50 23 67 48 17 54 16
76 -21z m5659 -268 c-3 -42 -4 -43 -40 -46 l-38 -3 0 45 0 46 41 0 40 0 -3
-42z m682 -243 c12 -13 40 -36 61 -50 36 -26 40 -26 94 -15 31 6 59 9 62 7 8
-9 23 -80 23 -114 0 -26 10 -40 55 -79 30 -26 55 -52 55 -57 0 -5 -19 -32 -42
-60 -43 -51 -43 -51 -43 -131 l0 -81 -50 -3 c-80 -4 -90 -9 -134 -67 -23 -30
-47 -55 -54 -55 -7 0 -36 21 -65 46 l-53 46 -69 -6 c-84 -9 -85 -7 -89 98 -1
35 -8 46 -56 91 -30 28 -55 55 -55 61 0 6 15 28 33 50 53 61 57 74 47 140 -10
72 0 84 73 84 62 0 77 9 122 70 20 27 42 50 49 50 7 0 23 -11 36 -25z m-7048
-31 c41 -58 73 -74 143 -74 l56 0 -7 -79 -6 -79 46 -50 c25 -27 46 -56 46 -64
0 -9 -22 -33 -49 -53 -57 -44 -71 -69 -71 -133 0 -69 -6 -73 -74 -62 -67 11
-87 3 -149 -54 -21 -20 -42 -36 -47 -36 -5 0 -27 25 -50 55 -43 58 -77 75
-152 75 -31 0 -39 4 -44 24 -3 13 -1 41 5 62 16 56 15 57 -34 117 -25 31 -45
61 -45 67 0 6 24 33 53 60 49 45 52 51 62 116 l10 69 72 -3 73 -4 47 46 c27
25 56 46 65 46 9 0 32 -21 50 -46z m-296 -864 c41 -54 41 -54 129 -69 32 -6
63 -15 67 -19 5 -5 4 -29 -1 -53 -17 -71 -13 -84 34 -142 25 -31 45 -59 45
-63 0 -4 -24 -30 -54 -58 -51 -48 -55 -55 -61 -111 -10 -91 -6 -88 -80 -80
-70 8 -103 -5 -154 -59 -14 -14 -29 -26 -35 -26 -6 0 -31 24 -55 54 -45 57
-66 67 -132 64 -58 -2 -62 5 -55 87 l7 72 -46 55 c-25 30 -45 59 -45 64 0 5
25 31 56 59 56 50 56 51 59 111 1 34 6 67 10 73 4 8 30 10 78 6 l72 -6 50 45
c28 25 55 45 61 46 7 0 29 -22 50 -50z m7719 4 l50 -45 76 6 c87 7 89 6 89
-89 0 -47 3 -52 55 -101 48 -44 71 -85 47 -85 -4 0 -22 -19 -40 -42 -30 -39
-32 -47 -32 -125 l0 -83 -55 0 c-70 0 -92 -11 -138 -71 -21 -27 -43 -49 -49
-49 -5 0 -33 20 -61 46 l-52 45 -75 -3 -75 -3 -5 69 -5 69 -57 51 c-32 28 -58
56 -58 61 0 6 13 24 28 40 58 61 65 79 57 145 -5 41 -3 65 4 74 7 8 40 17 74
21 67 8 92 24 128 82 12 18 26 33 32 33 7 0 35 -20 62 -46z"/>
<path d="M6145 9821 c-78 -19 -204 -113 -192 -143 5 -14 19 -16 84 -12 108 6
222 24 260 39 17 7 37 24 44 36 10 20 8 25 -17 46 -16 12 -49 25 -74 29 -25 3
-52 7 -60 9 -8 1 -28 -1 -45 -4z"/>
<path d="M7608 9573 c-49 -20 -52 -55 -8 -78 48 -25 69 -19 86 21 8 20 14 43
12 52 -4 22 -44 24 -90 5z"/>
<path d="M8661 8872 c-32 -16 -33 -18 -28 -65 7 -59 12 -67 42 -67 17 0 30 12
49 46 50 90 22 128 -63 86z"/>
<path d="M5820 9020 c-480 -25 -1005 -206 -1435 -495 -145 -98 -183 -126 -295
-219 -102 -85 -355 -356 -447 -477 -301 -399 -501 -856 -587 -1339 -30 -170
-37 -238 -43 -390 -7 -173 -8 -169 62 -187 70 -19 355 -94 503 -134 42 -11
131 -34 197 -50 66 -16 143 -35 170 -43 28 -8 84 -22 125 -31 41 -9 102 -23
135 -30 88 -20 209 -45 295 -60 41 -7 127 -23 190 -35 118 -23 143 -26 390
-55 399 -46 654 -58 1120 -52 217 3 431 10 475 16 44 6 152 18 240 26 210 21
314 33 405 50 41 8 127 24 190 35 63 12 149 28 190 37 41 8 96 19 121 23 25 5
64 13 85 19 21 5 73 18 114 27 41 9 98 22 125 30 77 21 335 85 383 95 24 5 48
12 54 15 5 3 44 15 86 26 43 11 129 33 192 49 63 17 131 34 150 39 59 15 63
28 56 180 -4 74 -11 164 -16 200 -6 36 -15 99 -20 140 -13 97 -54 276 -95 415
-246 820 -825 1505 -1590 1880 -161 79 -231 107 -395 160 -279 89 -452 121
-720 135 -183 10 -215 10 -410 0z m1929 -1110 c37 -10 81 -24 99 -32 29 -11
37 -11 63 5 17 9 36 17 43 17 13 0 31 -138 43 -318 l6 -84 -29 4 c-19 2 -32
12 -40 28 -68 150 -128 228 -212 277 -36 22 -61 28 -128 31 -71 4 -89 1 -129
-18 -27 -13 -59 -40 -76 -63 -24 -33 -29 -50 -29 -99 0 -109 39 -157 235 -287
258 -170 368 -268 428 -378 54 -100 70 -246 42 -377 -35 -166 -164 -288 -352
-332 -59 -14 -79 -14 -148 -4 -44 7 -111 24 -150 37 -38 13 -93 26 -123 30
-46 5 -56 3 -77 -17 -48 -45 -55 -28 -75 175 -6 61 -15 141 -21 179 -11 75 -5
90 32 84 18 -2 29 -19 53 -79 60 -146 124 -228 218 -275 58 -29 148 -40 205
-25 57 16 123 68 153 121 21 39 24 57 24 136 0 80 -4 97 -27 136 -43 75 -97
120 -293 250 -200 133 -274 199 -317 284 -44 86 -58 211 -36 316 31 149 166
274 323 299 73 11 219 1 295 -21z m-2841 -49 c4 -38 -9 -51 -51 -51 -42 0 -82
-25 -109 -67 l-23 -38 -6 -685 c-4 -465 -9 -707 -17 -755 -40 -228 -162 -424
-310 -497 -61 -30 -76 -33 -177 -37 -126 -4 -181 8 -218 45 -91 91 7 267 132
239 19 -4 58 -35 104 -81 40 -41 81 -74 90 -74 9 0 32 13 50 30 63 55 62 36
62 965 0 781 -1 842 -17 872 -27 48 -76 81 -127 85 -50 3 -67 22 -57 62 l6 26
333 -2 332 -3 3 -34z m658 -21 c21 -50 49 -123 151 -385 19 -49 38 -99 43
-110 18 -38 157 -400 170 -440 22 -71 50 -86 68 -37 13 35 108 289 139 372 13
36 40 108 59 160 19 52 38 104 44 115 5 11 37 97 71 190 34 94 66 176 72 183
7 9 62 12 231 10 l221 -3 3 -28 c5 -39 -14 -57 -59 -57 -48 0 -88 -33 -97 -79
-4 -18 -4 -81 0 -140 4 -58 14 -245 23 -416 22 -446 35 -635 45 -676 13 -49
50 -80 111 -93 59 -14 75 -31 65 -69 l-6 -27 -324 0 c-352 0 -356 1 -342 55 5
21 12 25 44 26 20 0 57 8 82 17 63 24 80 61 80 172 0 112 -48 972 -56 997 -6
24 -33 1 -48 -40 -8 -23 -54 -148 -102 -277 -47 -129 -99 -269 -114 -310 -32
-91 -217 -586 -230 -617 -11 -25 -32 -30 -48 -10 -6 6 -29 59 -51 117 -23 58
-46 114 -51 125 -6 11 -14 34 -19 50 -5 17 -24 64 -41 105 -17 41 -47 118 -67
170 -19 52 -73 192 -119 310 -47 118 -97 247 -112 285 -43 111 -56 97 -63 -70
-12 -300 -30 -625 -40 -735 -8 -87 -8 -127 1 -163 16 -62 55 -104 106 -112 58
-9 69 -18 69 -56 l0 -34 -230 0 -230 0 0 34 c0 37 6 42 73 62 85 25 100 67
112 327 5 103 13 266 19 362 32 536 33 576 20 619 -14 46 -61 91 -97 91 -21 0
-52 24 -52 41 0 6 5 19 10 30 10 18 21 19 227 17 l216 -3 23 -55z"/>
<path d="M2290 5973 c-48 -8 -125 -36 -168 -61 -65 -37 -88 -75 -112 -182 -19
-84 -44 -180 -81 -315 -33 -115 -99 -297 -158 -430 -83 -190 -287 -601 -385
-779 -71 -128 -89 -176 -66 -176 5 0 31 9 58 19 90 36 342 36 537 1 192 -35
355 -70 580 -126 77 -19 169 -42 205 -50 36 -9 81 -20 100 -25 99 -24 176 -42
281 -64 64 -14 123 -27 130 -30 12 -5 65 -15 219 -45 128 -24 215 -41 310 -60
58 -11 128 -25 155 -29 28 -4 111 -18 185 -30 74 -12 158 -26 185 -31 52 -9
191 -28 400 -54 66 -8 206 -22 310 -30 105 -9 246 -21 315 -28 177 -17 1341
-17 1510 0 69 7 233 22 365 33 132 11 258 24 280 29 22 5 58 10 81 10 22 0 83
7 135 15 52 8 123 20 159 25 83 14 298 48 370 60 54 9 191 35 340 65 125 26
161 33 250 49 47 9 92 19 100 22 8 3 60 14 115 25 55 11 114 24 130 29 17 5
71 18 120 29 50 11 108 29 129 41 22 11 56 23 75 26 20 3 72 15 116 26 177 45
303 69 600 118 207 34 444 35 537 2 33 -11 51 -13 58 -6 11 11 11 10 -91 199
-102 188 -239 465 -239 483 0 10 -18 56 -41 103 -136 281 -247 606 -315 927
-7 34 -23 76 -35 93 -47 67 -167 117 -299 126 -82 5 -118 1 -260 -31 -211 -48
-317 -74 -590 -147 -41 -11 -124 -33 -185 -49 -60 -16 -155 -40 -210 -55 -55
-15 -163 -42 -240 -61 -134 -34 -173 -43 -330 -79 -38 -9 -88 -21 -110 -27
-22 -6 -62 -14 -90 -19 -27 -4 -86 -15 -130 -23 -44 -9 -107 -20 -140 -26 -33
-5 -118 -19 -190 -31 -144 -23 -210 -31 -395 -48 -69 -6 -159 -16 -200 -22
-117 -16 -826 -23 -1050 -9 -312 18 -523 38 -695 65 -49 8 -124 19 -165 26
-114 18 -167 27 -260 44 -47 9 -108 20 -137 25 -29 4 -67 13 -85 18 -18 5 -67
17 -108 26 -123 27 -240 55 -320 77 -25 6 -61 15 -80 19 -19 4 -89 22 -155 39
-66 18 -169 45 -230 61 -60 16 -137 36 -170 45 -100 27 -406 105 -472 121
-131 30 -200 45 -247 54 -48 10 -157 11 -206 3z m7475 -436 c18 -55 18 -59 2
-68 -25 -14 -21 -41 19 -143 20 -50 61 -154 91 -231 30 -77 89 -223 130 -325
91 -224 94 -237 59 -246 -50 -12 -69 3 -181 148 -60 78 -149 192 -196 253 -47
60 -105 139 -129 175 -47 71 -89 120 -102 120 -16 0 -7 -34 33 -134 22 -55 56
-144 75 -196 20 -52 60 -160 91 -240 30 -80 56 -154 57 -165 1 -16 -9 -22 -49
-31 -80 -19 -84 -18 -104 29 -33 77 -34 83 -6 95 32 15 31 19 -4 111 -40 103
-129 347 -187 511 -26 74 -52 141 -57 148 -5 6 -20 12 -34 12 -19 0 -28 9 -43
46 -11 25 -20 52 -20 59 0 18 24 31 70 38 19 3 43 8 52 12 17 7 37 -18 347
-440 174 -236 181 -245 197 -245 19 0 19 0 -21 93 -37 89 -125 315 -125 322 0
3 -28 75 -61 160 -67 169 -67 180 -6 188 74 10 80 6 102 -56z m-7324 -87 c30
0 63 -6 73 -13 17 -13 17 -15 0 -64 -16 -44 -23 -52 -50 -57 -30 -6 -33 -12
-83 -149 -66 -179 -109 -293 -126 -332 -7 -16 -27 -68 -44 -115 -64 -170 -118
-220 -235 -220 -35 0 -71 3 -80 6 -22 8 -20 37 4 85 l21 39 63 -6 64 -7 25 39
c14 22 40 75 57 119 17 44 37 94 44 110 7 17 32 77 54 135 23 58 57 147 77
198 29 74 34 96 25 108 -7 8 -19 14 -26 14 -18 0 -18 19 2 66 19 46 32 56 59
49 11 -2 45 -5 76 -5z m6697 -2 c5 -7 18 -36 28 -65 l18 -51 -24 -20 c-23 -18
-23 -20 -8 -63 12 -35 136 -377 204 -560 7 -19 24 -61 38 -92 21 -48 29 -57
51 -57 21 0 29 -8 46 -47 32 -75 26 -85 -61 -103 -41 -8 -81 -19 -88 -23 -23
-16 -39 1 -57 58 -18 55 -18 56 4 79 l23 24 -31 84 c-16 46 -46 128 -65 183
-19 55 -45 129 -59 165 -13 36 -41 117 -62 180 -21 63 -43 121 -48 128 -5 6
-22 12 -38 12 -23 0 -30 5 -34 28 -4 15 -12 38 -20 52 -18 33 -3 60 33 60 15
1 50 9 77 20 62 23 60 23 73 8z m-6292 -67 c16 -5 42 -12 58 -16 33 -7 34 12
-9 -230 -15 -82 -31 -175 -35 -205 -18 -114 -31 -186 -40 -230 -33 -163 -34
-180 -10 -205 l23 -25 -19 -42 c-24 -55 -29 -58 -84 -51 -68 9 -83 19 -74 51
4 15 10 45 14 67 4 22 15 76 25 119 16 72 16 81 1 91 -20 15 -150 38 -173 31
-10 -3 -56 -69 -102 -147 l-84 -140 -51 6 c-28 4 -55 11 -60 16 -6 5 0 28 14
58 17 38 30 52 50 56 34 7 44 19 105 120 221 364 220 362 365 620 39 70 39 71
86 56z m6041 -23 c5 -7 15 -32 23 -56 12 -39 12 -44 -9 -66 l-22 -23 60 -174
c144 -419 192 -553 202 -566 6 -7 22 -13 36 -13 19 0 28 -10 44 -47 11 -25 18
-53 17 -62 -2 -9 -29 -22 -67 -34 -53 -15 -66 -16 -76 -5 -7 7 -35 81 -64 163
-29 83 -62 177 -75 210 l-22 60 -50 -3 c-69 -3 -158 -33 -162 -53 -2 -9 28
-109 66 -223 79 -234 79 -223 -18 -245 -63 -14 -72 -7 -91 62 -12 44 -7 67 16
67 8 0 15 8 15 18 0 11 -29 108 -64 218 -35 109 -87 272 -116 361 -51 159 -59
173 -101 173 -12 0 -21 9 -25 28 -3 15 -10 39 -16 54 -12 33 -4 48 27 48 13 0
40 7 59 17 29 13 38 14 51 3 8 -7 15 -20 15 -30 0 -10 9 -42 19 -72 10 -29 38
-115 62 -192 24 -76 49 -141 56 -143 7 -3 54 6 105 19 66 18 94 30 96 41 3 13
-99 333 -133 419 -7 18 19 36 70 49 46 11 62 10 72 -3z m-5564 -90 c17 -9 18
-25 11 -279 -6 -254 -5 -269 12 -269 19 0 54 27 54 42 0 5 38 66 83 136 46 70
110 167 141 216 l58 88 36 -7 c20 -4 55 -10 77 -14 37 -6 40 -9 39 -37 -2 -46
-26 -89 -51 -92 -12 -2 -26 -9 -31 -15 -5 -7 -35 -93 -66 -192 -31 -99 -79
-251 -108 -339 l-51 -158 28 -22 27 -22 -18 -53 c-16 -51 -18 -53 -48 -47 -17
3 -50 9 -73 12 -24 4 -43 11 -43 16 0 11 166 527 206 642 23 66 24 86 3 86 -5
0 -44 -53 -86 -117 -163 -252 -186 -285 -199 -290 -8 -3 -26 -2 -41 1 l-26 7
7 224 c5 169 4 225 -5 231 -20 12 -34 -19 -88 -184 -68 -208 -176 -501 -189
-514 -10 -10 -118 7 -135 22 -5 4 1 31 13 59 17 39 27 51 45 51 30 0 50 25 73
95 11 33 32 92 47 130 36 97 82 226 112 315 13 41 31 89 39 107 18 41 18 46
-6 68 -24 22 -25 43 -5 91 l14 35 63 -7 c35 -4 71 -11 81 -16z m5003 -65 c3
-10 12 -33 19 -50 17 -38 12 -59 -16 -66 -25 -7 -24 -26 5 -111 14 -39 43
-132 66 -206 144 -474 134 -448 171 -452 27 -3 33 -9 50 -58 10 -30 15 -58 11
-62 -4 -4 -41 -16 -82 -27 -41 -11 -84 -23 -96 -26 -25 -8 -43 11 -54 57 -4
18 -11 40 -14 49 -5 12 1 20 23 29 17 7 31 15 31 19 0 3 -15 53 -33 111 -19
58 -42 132 -52 165 -9 33 -28 96 -42 140 -13 44 -35 118 -49 165 -53 176 -48
165 -78 166 -15 1 -31 5 -35 10 -13 15 -34 91 -29 105 4 12 139 55 181 58 10
0 20 -7 23 -16z m-4263 -78 c47 -8 55 -25 35 -79 -12 -32 -21 -42 -44 -46 -30
-5 -40 -25 -79 -170 -21 -79 -60 -210 -114 -390 -41 -136 -48 -170 -33 -170 5
0 16 -6 26 -13 17 -12 17 -16 1 -65 -15 -46 -20 -52 -45 -52 -15 0 -47 7 -70
15 -23 8 -58 15 -77 15 -43 0 -50 18 -31 78 14 42 19 48 49 52 33 5 35 8 62
90 26 81 148 492 170 573 9 35 8 41 -16 63 -25 23 -25 24 -9 66 24 66 25 67
84 52 29 -7 70 -15 91 -19z m3799 -90 l18 -50 -31 -25 -30 -25 30 -115 c16
-63 44 -169 61 -235 17 -66 37 -142 45 -170 14 -51 38 -149 49 -197 8 -34 29
-35 131 -9 86 23 95 35 73 98 -9 27 -20 67 -24 90 -5 36 -3 43 16 53 46 25 62
3 98 -131 19 -68 38 -134 44 -145 17 -36 6 -58 -32 -65 -60 -12 -171 -36 -292
-64 -65 -14 -122 -24 -127 -21 -5 4 -17 29 -27 58 -16 49 -16 52 2 65 10 7 24
13 31 13 18 0 16 18 -8 103 -11 39 -31 113 -43 163 -13 50 -28 100 -35 112 -6
11 -11 31 -11 44 0 13 -9 57 -19 98 -10 41 -26 110 -36 153 -17 68 -22 78 -45
83 -14 3 -30 7 -35 9 -15 4 -39 105 -28 116 5 5 31 13 58 18 28 5 61 14 75 20
51 21 73 10 92 -44z m-3546 30 c6 -15 -100 -224 -119 -237 -15 -9 -37 2 -37
18 0 13 71 154 107 212 15 25 41 29 49 7z m367 -71 c23 -4 47 -12 53 -20 7 -9
9 -145 6 -452 l-5 -439 33 -11 c27 -10 31 -16 27 -34 -3 -13 -10 -39 -15 -58
l-8 -35 -55 3 c-94 6 -94 5 -94 188 l0 159 -90 18 c-49 10 -99 15 -111 13 -16
-4 -35 -40 -81 -148 l-61 -143 -53 3 c-75 4 -86 18 -67 79 12 39 21 49 45 55
27 7 37 22 101 165 72 160 192 441 192 449 0 2 18 48 41 102 42 99 63 127 87
117 8 -3 32 -8 55 -11z m2869 -11 c42 -37 60 -92 102 -298 9 -44 21 -93 26
-110 5 -16 16 -66 25 -110 8 -44 20 -98 25 -120 5 -22 16 -70 25 -106 8 -36
15 -95 15 -132 0 -81 -22 -111 -90 -126 -254 -55 -287 -52 -338 25 -27 42 -41
99 -98 409 -64 346 -67 362 -62 432 5 81 35 117 106 127 26 4 74 13 107 21 72
17 129 13 157 -12z m-2387 -73 c83 -11 200 -27 260 -35 61 -8 133 -15 161 -15
33 0 54 -5 57 -13 2 -7 1 -55 -4 -107 -15 -151 -31 -421 -36 -597 -4 -160 -4
-162 19 -177 13 -8 61 -17 113 -21 129 -10 128 -12 136 208 6 147 26 558 32
652 2 30 2 30 57 27 97 -4 97 -4 96 -67 0 -49 -3 -56 -23 -61 -12 -3 -27 -12
-33 -19 -8 -9 -15 -112 -21 -283 -13 -388 -22 -483 -49 -527 -34 -55 -69 -68
-164 -61 -172 13 -197 19 -232 59 -17 21 -37 57 -44 81 -12 45 -12 58 9 276
27 285 39 476 30 491 -12 22 -44 30 -65 14 -12 -8 -19 -31 -22 -74 -4 -62 -7
-65 -52 -61 -38 3 -52 19 -45 51 12 55 9 92 -10 105 -25 18 -89 18 -104 0 -7
-8 -16 -50 -22 -93 -5 -43 -13 -105 -18 -138 -5 -33 -14 -100 -21 -150 -6 -49
-16 -112 -21 -140 -6 -27 -11 -88 -12 -134 -2 -83 -1 -85 23 -91 22 -5 25 -12
28 -57 2 -36 -2 -55 -13 -67 -9 -9 -20 -14 -24 -12 -3 2 -45 9 -91 15 -146 19
-148 21 -129 96 11 42 36 64 58 51 15 -10 28 17 34 69 6 47 22 160 46 305 5
36 15 103 21 150 6 47 16 114 22 149 10 58 9 65 -7 78 -23 16 -97 17 -113 1
-7 -7 -12 -33 -12 -58 0 -25 -5 -51 -12 -58 -16 -16 -60 -15 -83 2 -16 12 -17
18 -8 38 6 14 16 60 22 104 20 136 15 128 69 120 26 -4 115 -15 197 -26z
m1944 -27 c16 -55 14 -65 -16 -89 l-26 -21 12 -99 c7 -54 16 -130 21 -169 4
-38 11 -81 14 -95 3 -14 11 -63 16 -110 20 -165 38 -263 52 -271 7 -5 23 -9
35 -9 25 0 32 -17 36 -85 l2 -40 -72 -9 c-39 -5 -78 -6 -86 -3 -9 3 -18 34
-25 89 -45 328 -52 358 -87 357 -28 0 -196 -27 -201 -31 -2 -3 2 -68 11 -144
9 -77 20 -167 23 -201 4 -34 10 -65 14 -69 4 -3 3 -15 -2 -24 -7 -14 -28 -20
-86 -25 -41 -4 -79 -4 -84 1 -4 5 -10 31 -12 59 -3 46 -1 51 24 63 29 13 45
50 34 77 -7 18 -38 265 -61 485 -21 203 -20 199 -55 212 -26 9 -30 15 -32 49
-1 21 -2 47 -2 56 -1 13 14 20 69 30 38 7 73 9 78 4 8 -8 14 -53 37 -286 6
-60 15 -121 21 -134 10 -23 12 -24 100 -18 59 4 100 12 116 22 23 15 25 22 19
59 -17 115 -46 344 -46 368 0 31 11 35 92 37 l57 1 10 -37z m-617 -118 c4 -44
9 -102 10 -130 l3 -50 -47 -3 c-52 -3 -58 5 -56 76 1 18 -4 38 -11 45 -13 13
-145 11 -173 -4 -27 -14 -38 -75 -32 -169 10 -129 10 -130 153 -130 116 0 119
-1 146 -27 15 -16 32 -39 37 -53 12 -28 25 -146 34 -297 7 -116 -1 -149 -48
-188 -26 -22 -40 -25 -111 -26 -45 0 -124 -4 -176 -7 -58 -5 -99 -3 -106 3 -9
7 -14 52 -17 145 l-3 135 40 5 c65 9 75 -1 75 -74 0 -85 6 -89 120 -80 122 9
124 12 114 165 -10 155 -14 159 -155 152 -102 -5 -105 -5 -135 21 -53 44 -61
75 -69 259 -5 106 -4 172 2 180 6 6 16 29 23 50 19 59 43 69 193 77 200 11
181 19 189 -75z"/>
<path d="M2782 5218 c-11 -18 -39 -69 -62 -113 -24 -44 -62 -112 -86 -151 -49
-79 -52 -89 -26 -102 25 -14 115 -24 128 -15 6 5 23 69 38 143 15 74 34 159
42 189 23 81 3 110 -34 49z"/>
<path d="M4611 4836 c-6 -7 -22 -44 -35 -82 -13 -38 -42 -115 -66 -172 -23
-57 -39 -109 -36 -118 7 -17 37 -29 94 -37 67 -8 72 3 72 147 0 68 3 157 6
199 6 65 5 77 -8 77 -9 0 -21 -6 -27 -14z"/>
<path d="M7447 4874 c-2 -3 -30 -9 -62 -14 -37 -6 -67 -18 -82 -32 -27 -25
-27 -36 -4 -153 7 -33 16 -82 21 -110 31 -171 90 -436 101 -457 18 -34 45 -40
108 -23 32 8 68 15 80 15 11 0 28 12 38 26 16 26 16 32 -15 178 -18 83 -41
192 -53 241 -11 50 -24 113 -29 140 -23 122 -31 150 -46 166 -15 17 -49 31
-57 23z"/>
<path d="M1409 4627 c-116 -48 -166 -109 -214 -257 -104 -325 -157 -426 -376
-728 -207 -286 -365 -547 -490 -810 -46 -96 -66 -149 -60 -155 7 -7 31 0 73
20 127 61 221 76 448 70 263 -7 339 -18 730 -109 96 -22 193 -44 215 -49 22
-4 78 -15 125 -25 48 -10 129 -18 185 -19 97 0 100 1 103 23 2 14 -8 42 -24
65 -69 105 -218 231 -484 407 -363 242 -517 396 -557 556 -25 100 -4 186 79
334 36 63 113 207 173 320 59 113 125 238 146 278 22 40 39 79 39 87 0 22 -46
18 -111 -8z"/>
<path d="M10556 4641 c-4 -6 8 -39 27 -73 19 -35 65 -121 102 -193 107 -206
160 -304 209 -390 96 -167 100 -179 101 -295 0 -98 -2 -109 -30 -160 -64 -117
-231 -268 -490 -442 -306 -206 -487 -361 -539 -460 -17 -31 -18 -39 -6 -53 12
-14 29 -16 114 -12 56 3 133 12 171 20 39 8 94 20 123 26 29 6 78 17 110 25
31 8 89 22 127 30 39 8 135 29 215 46 205 44 307 55 530 55 225 0 293 -10 398
-60 41 -19 78 -35 83 -35 19 0 6 36 -71 195 -111 231 -258 473 -450 744 -164
230 -180 254 -228 341 -62 113 -84 166 -147 351 -58 170 -82 217 -141 268 -63
56 -191 100 -208 72z"/>
<path d="M1475 3994 c-107 -18 -204 -67 -263 -132 -47 -54 -62 -95 -62 -173 0
-55 5 -77 26 -116 67 -120 191 -230 496 -439 227 -156 373 -269 436 -339 23
-25 48 -45 55 -43 6 3 13 22 15 44 3 49 31 227 42 274 5 19 21 87 35 150 44
196 113 412 171 540 19 41 33 79 30 85 -2 6 -32 16 -67 24 -35 7 -84 19 -109
26 -39 12 -204 46 -410 85 -68 12 -343 22 -395 14z"/>
<path d="M10225 3978 c-143 -15 -292 -42 -525 -94 -36 -8 -83 -19 -105 -24
-100 -22 -110 -35 -75 -99 88 -163 203 -589 251 -924 8 -56 18 -91 26 -94 8
-3 38 20 71 54 70 73 220 187 487 368 222 150 351 267 418 377 32 54 37 69 37
125 0 102 -42 175 -135 237 -64 42 -127 62 -240 75 -99 12 -95 12 -210 -1z"/>
<path d="M2533 3803 c-66 -96 -170 -407 -224 -669 l-23 -112 54 -68 c262 -334
575 -640 915 -894 501 -374 1044 -633 1670 -795 55 -14 123 -30 150 -35 28 -5
97 -18 155 -29 243 -48 444 -64 805 -65 262 0 377 3 500 17 546 60 1051 206
1545 445 334 162 662 374 958 619 226 188 652 627 652 672 -1 60 -81 404 -133
576 -48 156 -110 298 -139 322 -9 8 -33 6 -88 -8 -239 -62 -832 -186 -1045
-219 -27 -4 -75 -12 -105 -18 -30 -6 -71 -14 -91 -17 -26 -4 -68 -31 -145 -91
-283 -225 -601 -398 -929 -508 -154 -51 -226 -71 -390 -105 -148 -31 -439 -61
-585 -61 -266 0 -653 61 -920 145 -363 115 -737 318 -1025 558 -38 32 -79 59
-90 61 -119 22 -154 29 -180 32 -16 3 -52 9 -80 14 -27 6 -97 19 -155 30 -161
30 -499 100 -695 145 -33 7 -114 28 -180 45 -66 17 -130 34 -141 36 -16 4 -27
-2 -41 -23z m978 -560 c89 -93 109 -122 109 -163 0 -55 -83 -156 -148 -181
-37 -14 -99 11 -147 61 -22 22 -47 40 -58 40 -17 0 -46 -28 -145 -140 l-31
-35 -30 29 c-37 36 -38 50 -7 79 13 12 72 74 132 137 196 209 236 250 243 250
4 0 41 -35 82 -77z m5245 -25 c54 -57 143 -148 197 -203 53 -56 97 -106 97
-111 0 -13 -53 -64 -66 -63 -5 0 -45 41 -89 90 -44 49 -87 89 -95 89 -19 0
-110 -90 -110 -110 0 -8 38 -53 85 -100 47 -47 85 -89 85 -95 0 -6 -13 -24
-29 -39 -32 -31 -40 -29 -82 18 -15 17 -57 63 -94 101 -168 177 -255 273 -255
283 0 6 14 22 32 37 l32 27 77 -81 c43 -45 80 -81 84 -81 14 0 105 94 105 108
0 9 -31 48 -70 88 -38 39 -70 79 -70 87 0 15 45 57 60 57 4 0 52 -46 106 -102z
m-4952 -227 c137 -112 157 -150 119 -228 -22 -46 -81 -103 -107 -103 -38 0
-51 -16 -48 -58 3 -32 -5 -50 -44 -108 -25 -38 -53 -84 -60 -101 -8 -18 -18
-33 -22 -33 -12 0 -72 60 -72 72 0 6 17 34 37 62 99 137 98 135 47 194 -54 64
-69 59 -150 -53 -38 -52 -73 -95 -79 -95 -12 0 -65 47 -65 58 0 4 28 43 63 87
35 44 112 144 171 223 60 78 115 142 123 142 8 0 47 -27 87 -59z m4588 -112
c62 -56 151 -136 198 -178 47 -42 96 -87 109 -100 l24 -23 -24 -19 c-53 -43
-55 -43 -114 11 -62 56 -62 56 -130 -3 l-40 -35 28 -56 c33 -69 33 -77 3 -106
-27 -24 -53 -22 -63 7 -5 17 -47 115 -78 188 -7 17 -25 57 -39 90 -13 33 -41
98 -61 144 -20 46 -35 90 -33 97 3 13 87 83 100 83 4 1 58 -45 120 -100z
m-4326 -90 c39 -24 41 -31 15 -67 -23 -34 -145 -248 -183 -322 -34 -68 -34
-81 -2 -119 19 -23 34 -31 58 -31 37 0 56 18 103 95 50 83 123 210 158 277 13
26 28 49 33 52 12 7 72 -31 72 -47 0 -17 -211 -390 -236 -418 -26 -29 -68 -49
-102 -49 -44 0 -149 57 -179 97 -49 64 -34 119 88 330 34 59 73 128 87 153 27
49 42 70 50 70 2 0 20 -9 38 -21z m3970 -42 c12 -7 34 -27 50 -46 30 -36 27
-51 -13 -78 -18 -12 -24 -10 -63 22 -51 43 -69 44 -109 6 -43 -40 -41 -77 10
-171 46 -84 122 -202 141 -218 31 -25 64 -24 96 3 44 37 47 57 18 120 -26 57
-40 65 -77 43 -18 -11 -23 -10 -40 11 -10 13 -19 27 -19 31 0 13 113 90 132
90 9 0 23 -12 31 -27 8 -16 39 -72 70 -125 32 -53 57 -101 57 -106 0 -20 -28
-34 -47 -23 -25 13 -40 3 -48 -32 -14 -54 -111 -108 -169 -93 -76 19 -230 229
-271 368 -28 99 3 160 108 213 55 27 109 32 143 12z m-3551 -185 c60 -33 60
-22 10 -235 -21 -87 -35 -160 -33 -163 11 -11 38 10 64 49 82 122 171 237 183
237 27 0 121 -54 121 -70 0 -8 -6 -24 -14 -35 -7 -11 -17 -31 -21 -45 -7 -23
-52 -126 -123 -280 -16 -36 -39 -86 -50 -112 -22 -50 -34 -56 -77 -36 -39 18
-44 5 109 319 39 81 61 138 56 143 -12 12 -34 -7 -73 -63 -17 -25 -76 -108
-131 -184 -79 -109 -104 -137 -120 -135 -14 2 -22 12 -24 29 -2 21 32 181 90
421 12 49 8 65 -12 53 -12 -7 -53 -91 -98 -200 -80 -195 -96 -225 -117 -225
-11 0 -31 9 -43 19 l-24 18 30 64 c16 35 56 120 87 189 32 69 73 158 91 198
38 82 45 85 119 44z m3184 5 c15 -39 108 -243 172 -375 32 -67 59 -126 59
-131 0 -5 -19 -19 -43 -31 l-43 -23 -152 154 c-115 118 -153 151 -162 142 -10
-9 -4 -27 25 -80 42 -79 125 -263 125 -278 0 -15 -54 -45 -67 -37 -6 4 -54
104 -107 222 -53 118 -105 233 -116 255 -11 22 -20 43 -20 48 0 10 61 47 78
47 7 0 77 -65 155 -145 78 -80 147 -145 154 -145 16 0 17 46 2 56 -11 6 -149
287 -149 302 0 10 52 41 68 42 7 0 17 -11 21 -23z m-380 -173 c30 -38 15 -55
-76 -85 -82 -27 -95 -41 -75 -83 5 -11 15 -36 22 -53 10 -26 18 -33 40 -33 14
0 30 3 34 7 13 13 99 42 108 37 17 -11 29 -56 18 -69 -6 -7 -36 -20 -68 -30
-93 -29 -96 -35 -59 -130 21 -55 26 -60 53 -59 16 0 58 12 92 25 63 23 64 23
78 4 8 -10 14 -29 14 -41 0 -19 -17 -28 -131 -69 -85 -30 -135 -43 -141 -37
-11 11 -158 450 -158 472 0 9 -5 21 -11 27 -6 6 -9 21 -7 34 2 20 18 28 98 55
52 18 102 37 110 43 24 16 37 13 59 -15z m-2292 -35 c142 -44 167 -61 183
-118 13 -51 -19 -162 -60 -203 -25 -24 -36 -28 -85 -28 -30 0 -72 7 -92 15
-44 19 -59 9 -73 -49 -27 -104 -52 -175 -64 -179 -7 -3 -27 3 -44 13 -29 18
-30 21 -21 52 5 18 21 74 34 123 13 50 38 137 55 195 17 58 35 123 41 144 5
22 12 43 15 48 8 13 39 10 111 -13z m1969 -54 c22 -34 10 -62 -29 -70 -58 -12
-67 -16 -67 -34 0 -19 70 -309 96 -398 9 -29 14 -60 12 -70 -4 -19 -67 -37
-82 -23 -5 5 -22 62 -37 127 -60 256 -84 343 -97 348 -7 3 -33 0 -58 -6 -51
-13 -74 -2 -74 37 0 29 11 34 157 69 60 14 115 30 123 35 25 15 39 11 56 -15z
m-1608 -40 c3 -3 0 -36 -7 -73 -30 -155 -52 -266 -56 -272 -2 -4 -5 -39 -7
-78 -2 -79 11 -106 60 -115 73 -14 100 35 132 235 19 119 48 250 58 260 11 11
69 2 78 -13 3 -5 1 -31 -5 -57 -11 -49 -18 -87 -51 -269 -25 -137 -33 -159
-73 -200 -28 -30 -36 -33 -91 -33 -85 0 -135 17 -173 57 -29 31 -33 41 -33 91
0 66 10 130 40 257 12 50 25 115 28 145 10 74 17 83 60 77 19 -4 37 -9 40 -12z
m464 -150 c15 -55 34 -129 43 -165 24 -100 35 -130 50 -130 21 0 25 24 34 196
5 90 12 168 16 174 9 14 60 13 73 -3 7 -8 8 -27 2 -52 -4 -22 -14 -119 -20
-215 -7 -96 -15 -206 -19 -245 l-6 -70 -40 2 c-21 2 -44 9 -51 15 -12 14 -62
182 -89 305 -17 76 -35 103 -52 81 -9 -12 -26 -243 -24 -325 1 -52 -36 -76
-80 -52 -16 8 -19 17 -14 40 4 17 11 87 15 157 9 135 30 358 36 380 3 9 19 12
51 10 l48 -3 27 -100z m567 79 c30 -25 63 -106 54 -131 -3 -6 -18 -15 -34 -18
-34 -8 -59 8 -59 36 0 26 -40 67 -72 75 -23 5 -34 0 -64 -30 l-36 -36 7 -118
c9 -158 29 -246 62 -272 61 -48 133 5 133 98 0 45 -12 59 -55 64 -27 3 -30 7
-30 38 l0 35 74 8 c41 4 77 4 81 0 5 -4 13 -75 19 -157 9 -115 9 -151 0 -157
-17 -10 -37 0 -44 22 -9 26 -22 24 -61 -11 -54 -47 -138 -50 -192 -7 -47 38
-76 167 -76 347 -1 148 8 179 61 219 23 17 43 20 115 21 79 0 89 -2 117 -26z"/>
<path d="M3387 3144 c-73 -79 -73 -79 -35 -114 60 -56 102 -52 149 13 22 31
28 48 24 67 -6 25 -62 90 -77 90 -5 0 -32 -25 -61 -56z"/>
<path d="M3735 2932 c-20 -14 -95 -115 -95 -127 0 -21 81 -75 111 -75 31 0 99
68 99 100 0 20 -79 110 -96 110 -5 0 -14 -4 -19 -8z"/>
<path d="M8280 2831 c0 -12 88 -193 99 -204 14 -14 81 30 81 53 0 5 -35 43
-77 84 -71 70 -103 90 -103 67z"/>
<path d="M4952 2263 c-53 -146 -53 -155 14 -173 41 -12 48 -11 72 7 32 23 58
89 49 124 -8 28 -67 69 -101 69 -17 0 -27 -8 -34 -27z"/>
<path d="M4217 3483 c-10 -15 5 -29 103 -95 425 -288 859 -459 1310 -517 325
-41 520 -42 820 0 373 51 760 185 1080 372 106 63 301 194 317 215 18 21 5 35
-26 28 -135 -31 -508 -74 -931 -106 -80 -6 -165 -14 -190 -17 -25 -3 -315 -6
-645 -6 -637 -1 -660 1 -1305 63 -167 16 -399 47 -491 65 -20 4 -39 3 -42 -2z"/>
<path d="M585 2685 c-99 -15 -167 -35 -231 -68 -69 -35 -141 -101 -149 -137
-25 -113 148 -349 390 -532 102 -78 131 -86 121 -35 -27 139 -30 591 -5 708 8
38 8 53 -1 64 -14 17 -18 17 -125 0z"/>
<path d="M11366 2687 c-16 -12 -17 -17 -3 -72 30 -121 29 -572 -1 -680 -11
-36 -6 -55 14 -55 48 0 345 271 417 380 82 127 99 212 51 269 -54 65 -186 127
-314 149 -123 21 -146 22 -164 9z"/>
</g>
</svg>
